<!-- icon666.com - MILLIONS vector ICONS FREE --><svg id="svg8" viewBox="0 0 28 28" xmlns="http://www.w3.org/2000/svg" xmlns:svg="http://www.w3.org/2000/svg"><g id="layer2" transform="translate(-302 -42)"><g id="g21349" transform="translate(220 -40)"><path id="path20309" d="m86 82c-2.198693 0-4 1.801307-4 4v20c0 2.1987 1.801307 4 4 4h20c2.1987 0 4-1.8013 4-4v-20c0-2.198693-1.8013-4-4-4zm5 4c2.19729 0 4 1.80271 4 4s-1.80271 4-4 4-4-1.80271-4-4 1.80271-4 4-4zm9.47266 10.974609c.28051-.0144.56392.07907.8125.28125l6.71484 5.460941v3.2832c0 1.1253-.8747 2-2 2h-17.458984l11.134765-10.660156c.238755-.228582.516359-.350839.796879-.365235zm-10.718754 2.039063c.313972-.01423.63273.08088.900391.289062l2.25 1.749996-7.226563 6.91993c-.964754-.14967-1.677734-.95802-1.677734-1.97266v-2.06055l4.882812-4.556638c.247936-.231318.557126-.354906.871094-.36914z" stroke-linejoin="round"></path></g></g></svg>